# Blender v2.79 (sub 0) OBJ File: 'arbol.blend'
# www.blender.org
mtllib arbol.mtl
o arbol_Cube
v 0.072940 0.000000 -0.217607
v 0.275381 0.000000 -0.004284
v -0.169104 0.000000 0.162646
v -0.175096 0.000000 -0.005143
v 0.065620 0.289786 -0.099483
v 0.169380 0.289786 0.024665
v -0.015041 0.349351 0.059418
v -0.019995 0.349351 -0.042581
v 0.045860 0.783114 -0.151383
v 0.062435 0.780023 -0.023675
v 0.224440 0.835465 -0.079045
v 0.149064 0.954592 -0.171569
v 0.124221 1.097385 -0.105071
v 0.129690 1.003777 -0.002304
v -0.039844 0.996694 -0.072600
v 0.412114 1.581672 0.009993
v 0.385820 1.587686 -0.056253
v 0.439392 1.577401 -0.132901
v 0.460009 1.440329 -0.055887
v -0.054450 1.145934 0.047000
v 0.006183 1.172521 0.136412
v 0.051887 1.237082 0.102036
v 0.013036 1.220279 0.028472
v -0.005083 1.209940 -0.219069
v 0.053043 1.240560 -0.190812
v 0.081085 1.209212 -0.264346
v 0.039262 1.152227 -0.265405
v -0.079508 1.502356 -0.278021
v -0.027310 1.540791 -0.304518
v -0.055799 1.636417 -0.248319
v -0.104550 1.572974 -0.233432
v 0.419000 1.655863 -0.043100
v 0.460774 1.563305 0.006291
v 0.484645 1.877363 0.044635
v 0.438196 1.946366 0.007558
v 0.482820 1.937530 -0.034553
v 0.529269 1.868527 0.002524
v 0.349795 1.913554 0.081547
v 0.309274 1.941156 0.045982
v 0.270571 1.941903 0.069797
v 0.323585 1.905791 0.116327
v -0.019748 1.312323 0.151150
v -0.063113 1.273777 0.170391
v -0.041739 1.421925 0.247342
v -0.016841 1.454542 0.208278
v 0.076234 1.283899 0.170404
v 0.020110 1.344405 0.237610
v -0.223505 1.573943 0.159969
v -0.199401 1.562900 0.226895
v -0.170737 1.635746 0.224923
v -0.194841 1.646788 0.157997
v -0.213389 1.722813 -0.336265
v -0.182961 1.750710 -0.335685
v -0.181315 1.729408 -0.377411
v -0.210308 1.707897 -0.368683
v 0.543224 2.169664 0.168548
v 0.512270 2.215648 0.143841
v 0.480067 2.206484 0.164043
v 0.511020 2.160501 0.188751
v 0.031303 1.518388 0.313326
v 0.041870 1.554275 0.288733
v 0.007107 1.585237 0.295180
v -0.004596 1.557191 0.317916
v -0.355847 1.804849 0.244084
v -0.340659 1.797891 0.286255
v -0.358721 1.751990 0.287498
v -0.373909 1.758948 0.245327
v 0.291515 2.245592 0.185640
v 0.260304 2.266852 0.158246
v 0.295017 2.258287 0.154695
v -0.558748 1.853477 0.244760
v -0.545873 1.847579 0.280508
v -0.530562 1.886488 0.279454
v -0.543437 1.892386 0.243707
v 0.078617 1.603316 0.416133
v 0.101121 1.590610 0.401041
v 0.090984 1.565198 0.409708
v 0.514979 2.543741 0.221410
v 0.512240 2.533123 0.168929
v 0.548339 2.552191 0.202765
v -0.404805 1.808031 -0.432113
v -0.375812 1.829542 -0.440841
v -0.392671 1.836896 -0.399405
v 0.106360 0.319568 0.113584
v 0.132892 0.000000 0.217841
v 0.180171 0.809018 -0.005955
v 0.342751 1.906637 -0.328089
v -0.114305 1.757824 0.289319
v -0.770753 1.421117 0.028644
v -0.719391 1.361840 -0.749878
v -0.031210 1.661908 -0.970343
v -0.243181 1.948699 0.055270
v -0.679020 1.790067 -0.095434
v -0.679020 1.790067 -0.583109
v -0.243181 1.948699 -0.733812
v 0.026189 2.046741 -0.339271
v -0.451333 2.145783 -0.339271
v 0.583640 2.618921 0.069863
v 0.933237 2.105952 0.069863
v 0.599918 2.254406 -0.432345
v 0.060610 2.494606 -0.240516
v 0.060610 2.494606 0.380242
v 0.599918 2.254406 0.572072
v 0.540362 1.804385 -0.733424
v -0.355051 2.138254 -0.452795
v -0.349654 2.237945 0.538180
v 0.549109 1.965684 0.869991
v 1.099158 1.697732 0.084096
v 0.111488 1.661057 0.730137
v -0.399736 1.618584 1.041386
v -0.854806 1.730559 0.666675
v -0.624817 1.842235 0.123840
v -0.027619 1.799280 0.163068
v -0.356515 1.838715 0.927022
v -0.644185 1.948247 0.714640
v -0.508888 2.054000 0.382425
v -0.137597 2.009827 0.389483
v -0.043421 1.876773 0.726065
v -0.317532 2.129253 0.694801
vt 0.677905 0.028201
vt 0.652928 0.298448
vt 0.620556 0.290392
vt 0.639790 0.009955
vt 0.565388 0.000000
vt 0.569414 0.316872
vt 0.547834 0.320256
vt 0.543768 0.007701
vt 0.526304 0.297553
vt 0.500000 0.023393
vt 0.577939 0.512932
vt 0.553502 0.511494
vt 0.527583 0.574736
vt 0.641315 0.566358
vt 0.618504 0.517978
vt 0.716388 0.091978
vt 0.759681 0.028566
vt 0.734047 0.277945
vt 0.698703 0.339692
vt 0.677905 0.115945
vt 0.677905 0.327427
vt 0.791354 0.087504
vt 0.759922 0.346540
vt 0.815966 0.104720
vt 0.844495 0.081103
vt 0.849231 0.236368
vt 0.830130 0.250236
vt 0.896426 0.081860
vt 0.922012 0.116971
vt 0.902432 0.256881
vt 0.886333 0.258048
vt 0.980345 0.091119
vt 1.000000 0.132175
vt 0.983679 0.248021
vt 0.969504 0.241564
vt 0.957597 0.012726
vt 0.958351 0.216304
vt 0.922012 0.130633
vt 0.933790 0.071318
vt 0.947619 0.233033
vt 0.932940 0.248797
vt 0.963130 0.369523
vt 0.949748 0.376771
vt 0.935273 0.411583
vt 0.974239 0.394931
vt 0.986840 0.410120
vt 0.720567 0.345985
vt 0.728546 0.494605
vt 0.715235 0.501501
vt 0.697889 0.381497
vt 0.697649 0.527112
vt 0.774106 0.403498
vt 0.753963 0.532888
vt 0.743959 0.519465
vt 0.645324 0.574736
vt 0.660165 0.621734
vt 0.649790 0.756188
vt 0.639411 0.743063
vt 0.629777 0.590928
vt 0.628540 0.745490
vt 0.677905 0.606922
vt 0.657745 0.765617
vt 0.611464 0.588002
vt 0.611464 0.759995
vt 0.880012 0.301877
vt 0.870326 0.247917
vt 0.867814 0.296974
vt 0.554971 0.613052
vt 0.569008 0.574736
vt 0.569869 0.646917
vt 0.558670 0.671812
vt 0.599923 0.622496
vt 0.611464 0.611728
vt 0.608363 0.681585
vt 0.597011 0.683047
vt 0.584671 0.587805
vt 0.580888 0.617826
vt 0.862412 0.434978
vt 0.846718 0.435891
vt 0.874730 0.455328
vt 0.834519 0.454634
vt 0.889340 0.461627
vt 0.976632 0.476247
vt 0.968384 0.476967
vt 0.960883 0.476601
vt 0.953532 0.474943
vt 0.944781 0.476881
vt 0.727848 0.638121
vt 0.722637 0.625159
vt 0.733321 0.641781
vt 0.716527 0.624780
vt 0.711219 0.637522
vt 0.582398 0.733249
vt 0.573345 0.728010
vt 0.590430 0.740554
vt 0.597462 0.743531
vt 0.562370 0.736600
vt 0.876069 0.551365
vt 0.868689 0.544581
vt 0.851130 0.542518
vt 0.841470 0.550619
vt 0.859740 0.538176
vt 0.628452 0.865434
vt 0.622565 0.886486
vt 0.641974 0.887071
vt 0.634908 0.878361
vt 0.857516 0.599660
vt 0.853645 0.602413
vt 0.862226 0.617658
vt 0.850176 0.617833
vt 0.868074 0.625513
vt 0.573590 0.782222
vt 0.566443 0.788328
vt 0.583415 0.788328
vt 0.579114 0.778634
vt 0.712792 0.664931
vt 0.712799 0.661846
vt 0.710034 0.685354
vt 0.961896 0.555605
vt 0.955864 0.563606
vt 0.947344 0.567070
vt 0.968998 0.567070
vt 0.871884 0.000000
vt 0.604864 0.000000
vt 0.597673 0.301389
vt 0.601229 0.514183
vt 0.896810 0.000000
vt 0.741280 0.000000
vt 0.980738 0.000000
vt 0.815966 0.165755
vt 0.788481 0.366707
vt 0.339635 0.233473
vt 0.390495 0.588193
vt 0.243007 0.480831
vt 0.155241 0.220596
vt 0.092137 0.567353
vt 0.237529 0.794541
vt 0.095788 0.077406
vt 0.389766 0.081501
vt 0.004999 0.638210
vt 0.242865 0.988888
vt 0.242865 0.988888
vt 0.004999 0.638210
vt 0.092137 0.567353
vt 0.237529 0.794541
vt 0.095788 0.077406
vt 0.155241 0.220596
vt 0.389766 0.081501
vt 0.339635 0.233473
vt 0.390495 0.588193
vt 0.243007 0.480831
vt 0.339635 0.233473
vt 0.390495 0.588193
vt 0.243007 0.480831
vt 0.155241 0.220596
vt 0.092137 0.567353
vt 0.237529 0.794541
vt 0.095788 0.077406
vt 0.389766 0.081501
vt 0.004999 0.638210
vt 0.242865 0.988888
vt 0.480662 0.644826
vt 0.480662 0.644826
vt 0.480662 0.644826
vn 0.0815 0.3516 -0.9326
vn 0.1312 0.1276 -0.9831
vn 0.9885 0.1470 -0.0363
vn 0.9366 0.3355 -0.1011
vn -0.6969 0.4480 0.5600
vn -0.7097 0.3616 0.6046
vn -0.8487 0.2005 -0.4893
vn -0.8631 0.3748 -0.3384
vn -0.6838 -0.0366 0.7288
vn -0.7536 -0.1744 -0.6337
vn 0.4755 -0.1438 -0.8679
vn 0.9892 -0.1301 -0.0669
vn 0.4025 0.0286 0.9149
vn 0.9288 -0.3505 0.1202
vn -0.2661 -0.1776 0.9474
vn -0.1690 0.9713 -0.1670
vn -0.9280 0.3062 -0.2121
vn 0.1276 0.2351 -0.9635
vn -0.9934 -0.0576 -0.0994
vn -0.9796 -0.1176 -0.1627
vn 0.2695 0.6084 -0.7464
vn 0.9558 0.2835 0.0777
vn 0.5445 0.4393 0.7145
vn -0.9434 0.0046 0.3315
vn -0.3641 -0.2716 -0.8908
vn 0.6798 0.0938 -0.7273
vn -0.6460 -0.3680 -0.6687
vn 0.7105 0.0918 -0.6977
vn 0.5102 0.6421 0.5721
vn -0.6455 -0.1191 0.7544
vn 0.4797 -0.2369 0.8448
vn 0.9942 -0.1070 -0.0037
vn -0.0690 -0.3068 0.9492
vn -0.6227 0.4463 -0.6426
vn -0.9820 0.1726 -0.0763
vn 0.0834 0.3920 -0.9161
vn 0.2397 0.3245 -0.9150
vn 0.9679 0.1901 0.1641
vn -0.1115 -0.3027 0.9465
vn -0.9611 -0.0408 -0.2732
vn 0.4809 0.7472 -0.4586
vn 0.0331 -0.5288 0.8481
vn -0.6157 -0.3885 0.6855
vn 0.2462 -0.4287 0.8693
vn -0.9299 -0.0457 0.3650
vn -0.3388 0.5182 -0.7853
vn 0.9890 -0.0741 -0.1279
vn -0.3019 -0.4068 0.8622
vn -0.7983 -0.2883 -0.5287
vn 0.7592 0.3901 0.5209
vn 0.3410 0.5533 -0.7600
vn 0.3499 0.8273 0.4395
vn -0.5787 -0.1497 0.8017
vn -0.4946 -0.7361 -0.4621
vn 0.4844 0.2528 -0.8375
vn 0.1406 0.2588 -0.9556
vn 0.9709 -0.0561 0.2326
vn -0.9841 0.1428 -0.1051
vn -0.1639 -0.2993 0.9400
vn 0.7932 0.3057 -0.5267
vn 0.2673 -0.5602 0.7841
vn -0.3357 0.8550 -0.3952
vn -0.8980 0.1145 0.4249
vn 0.3160 0.6831 -0.6584
vn 0.4834 0.5742 0.6608
vn -0.5743 -0.5247 -0.6283
vn -0.2722 -0.5004 0.8219
vn 0.1597 0.1712 0.9722
vn -0.8090 0.5875 -0.0160
vn 0.5177 0.8087 -0.2792
vn -0.6619 -0.3447 0.6656
vn -0.8549 -0.2352 -0.4623
vn -0.1796 0.7424 0.6454
vn -0.4092 0.7817 -0.4707
vn 0.3826 -0.7141 0.5862
vn 0.0920 0.6007 0.7941
vn 0.9593 0.2818 0.0176
vn 0.7073 0.7017 0.0848
vn -0.2975 0.4565 0.8385
vn -0.4252 0.6029 -0.6750
vn -0.8073 -0.3878 -0.4447
vn 0.0666 0.4918 -0.8682
vn -0.6855 0.6343 0.3574
vn 0.3449 0.3439 0.8733
vn 0.3294 0.2640 0.9065
vn 0.5420 0.0660 0.8378
vn -0.0894 0.7777 0.6222
vn 0.3535 0.9351 -0.0228
vn -0.3420 0.9397 0.0000
vn -0.7942 0.4724 0.3822
vn -0.7857 0.4423 -0.4324
vn -0.0662 0.7310 -0.6792
vn -0.8731 0.3346 0.3545
vn -0.1020 0.7091 0.6977
vn -0.7944 0.3101 -0.5222
vn -0.0314 0.6373 -0.7700
vn 0.4202 0.4802 -0.7700
vn -0.3559 0.7750 -0.5222
vn -0.2579 0.8640 -0.4324
vn 0.4602 0.5718 -0.6792
vn -0.3955 0.8473 0.3545
vn -0.2430 0.8915 0.3822
vn 0.4193 0.5809 0.6977
vn 0.4760 0.6215 0.6222
vn 0.9039 0.4270 -0.0228
vn 0.4068 0.9135 0.0000
vn 0.0232 0.4963 0.8678
vn 0.6916 0.5738 0.4386
vn 0.1047 0.9345 0.3401
vn -0.6050 0.6870 0.4025
vn -0.3157 0.8887 -0.3324
vn 0.4940 0.8146 -0.3040
vn -0.7181 0.6252 0.3056
vn -0.0431 0.4263 0.9035
vn -0.3454 0.8123 -0.4699
vn 0.5170 0.7467 -0.4185
vn 0.4338 0.8995 -0.0512
vn 0.9370 0.3456 -0.0512
vn 0.7541 0.5112 0.4122
usemtl arbol
s 1
f 1/1/1 5/2/2 6/3/3 2/4/4
f 3/5/5 7/6/6 8/7/7 4/8/8
f 5/9/2 1/10/1 4/8/8 8/7/7
f 8/7/7 7/6/6 10/11/9 9/12/10
f 5/9/2 8/7/7 9/12/10 12/13/11
f 6/3/3 5/2/2 12/14/11 11/15/12
f 14/16/13 11/17/12 19/18/14 16/19/15
f 13/20/16 14/16/13 16/19/15 17/21/17
f 11/17/12 12/22/11 18/23/18 19/18/14
f 13/24/16 15/25/19 20/26/20 23/27/21
f 14/28/13 13/29/16 23/30/21 22/31/22
f 15/32/19 13/33/16 25/34/23 24/35/24
f 9/36/10 15/32/19 24/35/24 27/37/25
f 13/38/16 12/39/11 26/40/26 25/41/23
f 12/39/11 9/36/10 27/37/25 26/40/26
f 26/40/26 27/37/25 28/42/27 29/43/28
f 25/41/23 26/40/26 29/43/28 30/44/29
f 27/37/25 24/35/24 31/45/30 28/42/27
f 24/35/24 25/34/23 30/46/29 31/45/30
f 16/19/15 19/18/14 33/47/31
f 33/47/31 19/18/14 37/48/32 34/49/33
f 32/50/34 33/47/31 34/49/33 35/51/35
f 18/23/18 32/52/34 35/53/35 36/54/36
f 19/18/14 18/23/18 36/54/36 37/48/32
f 33/55/31 32/56/34 39/57/37 38/58/38
f 16/59/15 33/55/31 38/58/38 41/60/39
f 32/56/34 17/61/17 40/62/40 39/57/37
f 17/63/17 16/59/15 41/60/39 40/64/40
f 22/31/22 23/30/21 42/65/41
f 20/26/20 21/66/42 43/67/43
f 43/68/43 21/69/42 47/70/44 44/71/45
f 42/72/41 43/73/43 44/74/45 45/75/46
f 22/76/22 42/72/41 45/75/46 46/77/47
f 21/69/42 22/76/22 46/77/47 47/70/44
f 20/26/20 43/67/43 49/78/48 48/79/49
f 43/67/43 42/65/41 50/80/50 49/78/48
f 23/27/21 20/26/20 48/79/49 51/81/51
f 42/65/41 23/30/21 51/82/51 50/80/50
f 31/45/30 30/46/29 53/83/52 52/84/53
f 28/42/27 31/45/30 52/84/53 55/85/54
f 30/44/29 29/43/28 54/86/55 53/87/52
f 29/43/28 28/42/27 55/85/54 54/86/55
f 37/48/32 36/54/36 57/88/56 56/89/57
f 36/54/36 35/53/35 58/90/58 57/88/56
f 35/51/35 34/49/33 59/91/59 58/92/58
f 34/49/33 37/48/32 56/89/57 59/91/59
f 47/70/44 46/77/47 61/93/60 60/94/61
f 46/77/47 45/75/46 62/95/62 61/93/60
f 45/75/46 44/74/45 63/96/63 62/95/62
f 44/71/45 47/70/44 60/94/61 63/97/63
f 50/80/50 51/82/51 64/98/64 65/99/65
f 51/81/51 48/79/49 67/100/66 64/101/64
f 49/78/48 50/80/50 65/99/65 66/102/67
f 48/79/49 49/78/48 66/102/67 67/100/66
f 40/64/40 41/60/39 68/103/68 69/104/69
f 39/57/37 40/62/40 69/105/69 70/106/70
f 41/60/39 38/58/38 70/106/70 68/103/68
f 38/58/38 39/57/37 70/106/70
f 69/104/69 68/103/68 70/106/70
f 67/100/66 66/102/67 72/107/71 71/108/72
f 66/102/67 65/99/65 73/109/73 72/107/71
f 64/101/64 67/100/66 71/108/72 74/110/74
f 65/99/65 64/98/64 74/111/74 73/109/73
f 74/110/74 71/108/72 72/107/71 73/109/73
f 63/97/63 60/94/61 77/112/75 75/113/76
f 62/95/62 63/96/63 75/114/76
f 61/93/60 62/95/62 75/114/76 76/115/77
f 60/94/61 61/93/60 76/115/77 77/112/75
f 77/112/75 76/115/77 75/114/76
f 59/91/59 56/89/57 80/116/78 78/117/79
f 58/92/58 59/91/59 78/117/79 79/118/80
f 57/88/56 58/90/58 79/118/80
f 56/89/57 57/88/56 79/118/80 80/116/78
f 80/116/78 79/118/80 78/117/79
f 54/86/55 55/85/54 81/119/81 82/120/82
f 53/87/52 54/86/55 82/120/82 83/121/83
f 55/85/54 52/84/53 83/122/83 81/119/81
f 52/84/53 53/83/52 83/122/83
f 82/120/82 81/119/81 83/122/83
f 10/123/9 22/31/22 21/66/42
f 7/6/6 3/5/5 85/124/84 84/125/85
f 6/3/3 84/125/85 85/124/84 2/4/4
f 6/3/3 11/15/12 86/126/86 84/125/85
f 7/6/6 84/125/85 86/126/86 10/11/9
f 10/123/9 86/127/86 14/28/13 22/31/22
f 11/17/12 14/16/13 86/128/86
f 10/123/9 21/66/42 20/26/20
f 9/36/10 10/129/9 15/32/19
f 10/123/9 20/26/20 15/25/19
f 18/23/18 12/22/11 13/130/16
f 17/131/17 18/23/18 13/130/16
f 18/23/18 17/131/17 32/52/34
f 92/132/87 96/133/88 97/134/89
f 93/135/90 92/132/87 97/134/89
f 94/136/91 93/135/90 97/134/89
f 95/137/92 94/136/91 97/134/89
f 96/133/88 95/137/92 97/134/89
f 89/138/93 88/139/94 92/132/87 93/135/90
f 90/140/95 89/138/93 93/135/90 94/136/91
f 91/141/96 90/140/95 94/136/91 95/137/92
f 104/142/97 105/143/98 101/144/99 100/145/100
f 105/143/98 106/146/101 102/147/102 101/144/99
f 106/146/101 107/148/103 103/149/104 102/147/102
f 99/150/105 100/145/100 98/151/106
f 100/145/100 101/144/99 98/151/106
f 101/144/99 102/147/102 98/151/106
f 102/147/102 103/149/104 98/151/106
f 103/149/104 99/150/105 98/151/106
f 114/152/107 118/153/108 119/154/109
f 115/155/110 114/152/107 119/154/109
f 116/156/111 115/155/110 119/154/109
f 117/157/112 116/156/111 119/154/109
f 118/153/108 117/157/112 119/154/109
f 111/158/113 110/159/114 114/152/107 115/155/110
f 112/160/115 111/158/113 115/155/110 116/156/111
f 113/161/116 112/160/115 116/156/111 117/157/112
usemtl arbol_NONE
f 87/162/117 96/133/88 92/132/87 88/139/94
f 87/162/117 91/141/96 95/137/92 96/133/88
f 108/163/118 104/142/97 100/145/100 99/150/105
f 108/163/118 99/150/105 103/149/104 107/148/103
f 109/164/119 118/153/108 114/152/107 110/159/114
f 109/164/119 113/161/116 117/157/112 118/153/108
