# Blender v2.79 (sub 0) OBJ File: 'Overworld-tree-model.blend'
# www.blender.org
mtllib Overworld-tree-model.mtl
o stump1_Icosphere
v 0.000000 -1.000000 0.000000
v 0.678932 -0.348464 0.568072
v -0.282312 -0.295872 0.868876
v -0.872585 -0.393388 0.000000
v -0.276388 -0.447220 -0.850649
v 0.723607 -0.447220 -0.525725
v 0.276388 0.516434 0.850649
v -0.723607 0.516433 0.525725
v -0.723607 0.516433 -0.525725
v 0.276388 0.516434 -0.850649
v 0.894426 0.516429 0.000000
v 0.000000 0.499897 0.000000
v 0.425323 -0.850654 0.309011
v 0.441257 -0.388968 0.714206
v -0.162456 -0.850654 0.499995
v 0.425323 -0.850654 -0.309011
v 0.850648 -0.525736 0.000000
v -0.741621 -0.443250 0.317506
v -0.525730 -0.850652 0.000000
v -0.741621 -0.443250 -0.317506
v -0.162456 -0.850654 -0.499995
v 0.262869 -0.525738 -0.809012
v 0.951058 0.000000 -0.309013
v 0.796263 -0.117763 0.456279
v 0.608867 -0.117763 0.714209
v -0.146226 -0.075674 0.942412
v -0.435636 -0.075674 0.848377
v -0.908547 -0.109400 0.196228
v -0.908547 -0.109400 -0.196228
v -0.587786 0.000000 -0.809017
v 0.000000 0.000000 -1.000000
v 0.587786 0.000000 -0.809017
v 0.688189 0.525736 0.499997
v -0.262869 0.525738 0.809012
v -0.850648 0.525736 0.000000
v -0.262869 0.525738 -0.809012
v 0.688189 0.525736 -0.499997
v 0.525730 0.490739 0.000000
v 0.162456 0.490742 0.499995
v -0.425323 0.490742 0.309011
v -0.425323 0.490742 -0.309011
v 0.162456 0.490742 -0.499995
v 1.176702 -0.646695 1.113513
v 1.037606 -0.670399 1.199037
v 1.245369 -0.511680 1.048088
v 1.135698 -0.511680 1.199038
v -0.531062 -0.508898 1.634449
v -0.394976 -0.288699 1.707985
v -0.684386 -0.288699 1.613950
v -2.081471 -0.803223 0.000000
v -1.950508 -0.853085 0.317506
v -1.950508 -0.853085 -0.317506
v -2.117434 -0.519234 0.196228
v -2.117434 -0.519234 -0.196228
v 1.214461 -0.804172 -1.393341
v 0.901490 -0.857507 -1.585772
v 1.122200 -0.500384 -1.585775
v 0.655696 -0.223610 -0.667371
v 1.168330 -0.652278 -1.489558
v 0.854993 -0.250192 -1.197396
v 0.969034 -0.625696 -0.959533
v 0.912013 -0.437944 -1.078465
v 1.191396 -0.728225 -1.441450
v 1.091747 -0.714934 -1.176437
v 1.040172 -0.545111 -1.284011
v 0.940524 -0.531820 -1.018999
v 1.065960 -0.630022 -1.230224
v 1.451283 -0.634670 -0.967317
v 1.445041 -0.468259 -1.035469
v 1.555235 -0.695707 -1.202981
v 1.549590 -0.550210 -1.264626
v 1.448162 -0.525167 -1.001393
v 1.552413 -0.596661 -1.233804
v 1.946111 -0.635976 -1.011257
v 1.944076 -0.564572 -1.033478
v 1.980004 -0.655877 -1.088094
v 1.978164 -0.591291 -1.108192
v 1.945094 -0.600274 -1.022368
v 1.979084 -0.623584 -1.098143
v 0.737598 -0.233113 0.512175
v 1.020816 -0.314721 0.752183
v 1.211036 -0.579187 1.080800
v 0.927817 -0.497579 0.840792
v 0.974317 -0.406150 0.796488
v 0.908540 -0.216242 0.604231
v 0.766930 -0.175438 0.484227
v 0.855957 -0.319632 0.654332
v 0.997566 -0.360436 0.774336
v 0.882248 -0.267937 0.629281
v 1.108081 -0.495904 0.491809
v 1.092084 -0.527359 0.507051
v 1.069454 -0.462024 0.440909
v 1.051364 -0.497594 0.458145
v 1.100082 -0.511631 0.499430
v 1.060409 -0.479809 0.449527
vt 0.627092 0.048649
vt 0.875509 0.200742
vt 0.567967 0.238378
vt 0.092824 0.222246
vt 0.337599 0.069479
vt 0.256739 0.339504
vt 0.092824 0.784004
vt 0.022539 0.503125
vt 0.256739 0.666746
vt 0.627092 0.976351
vt 0.321974 0.980521
vt 0.567967 0.767872
vt 0.957291 0.503125
vt 0.897384 0.814883
vt 0.760321 0.503125
vt 0.481054 0.503125
vt 0.000000 0.000000
vt 1.000000 0.000000
vt 1.000000 1.000000
vt 0.000000 0.000000
vt 1.000000 1.000000
vt 1.000000 0.000000
vt 1.000000 1.000000
vt 1.000000 0.000000
vt 1.000000 1.000000
vt 1.000000 0.000000
vt 1.000000 1.000000
vt 0.500000 1.000000
vt 0.975528 0.654508
vt 0.793893 0.095491
vt 0.206107 0.095492
vt 0.024472 0.654509
vt 0.000000 0.000000
vt 1.000000 0.000000
vt 1.000000 1.000000
vt 0.000000 0.000000
vt 1.000000 0.000000
vt 1.000000 1.000000
vt 0.000000 1.000000
vt 0.000000 0.000000
vt 1.000000 0.000000
vt 1.000000 1.000000
vt 0.500000 1.000000
vt 0.975528 0.654508
vt 0.793893 0.095491
vt 0.206107 0.095492
vt 0.024472 0.654509
vt 0.500000 1.000000
vt 0.975528 0.654508
vt 0.793893 0.095491
vt 0.206107 0.095492
vt 0.024472 0.654509
vt 0.000000 0.000000
vt 1.000000 0.000000
vt 1.000000 1.000000
vt 0.000000 1.000000
vt 0.000000 0.000000
vt 1.000000 1.000000
vt 0.000000 1.000000
vt 1.000000 0.000000
vt 1.000000 1.000000
vt 0.000000 0.000000
vt 1.000000 0.000000
vt 1.000000 1.000000
vt 0.000000 1.000000
vt 0.000000 0.000000
vt 1.000000 1.000000
vt 0.000000 0.000000
vt 1.000000 0.000000
vt 0.000000 0.000000
vt 1.000000 0.000000
vt 1.000000 1.000000
vt 1.000000 0.000000
vt 0.000000 0.000000
vt 1.000000 0.000000
vt 1.000000 1.000000
vt 1.000000 1.000000
vt 1.000000 0.000000
vt 0.000000 0.000000
vt 1.000000 1.000000
vt 1.000000 1.000000
vt 0.000000 0.000000
vt 1.000000 0.000000
vt 1.000000 1.000000
vt 1.000000 0.000000
vt 0.000000 0.000000
vt 1.000000 0.000000
vt 1.000000 1.000000
vt 1.000000 0.000000
vt 1.000000 1.000000
vt 1.000000 0.000000
vt 0.000000 0.000000
vt 1.000000 0.000000
vt 1.000000 1.000000
vt 1.000000 1.000000
vt 0.500000 1.000000
vt 0.933013 0.750000
vt 0.933013 0.250000
vt 0.500000 0.000000
vt 0.066987 0.250000
vt 0.066987 0.750000
vt 0.000000 0.000000
vt 1.000000 0.000000
vt 1.000000 1.000000
vt 1.000000 1.000000
vt 0.000000 0.000000
vt 0.000000 0.000000
vt 1.000000 0.000000
vt 1.000000 1.000000
vt 1.000000 1.000000
vt 0.000000 0.000000
vt 1.000000 0.000000
vt 1.000000 1.000000
vt 0.000000 1.000000
vt 0.000000 0.000000
vt 1.000000 0.000000
vt 1.000000 1.000000
vt 0.000000 0.000000
vt 0.000000 0.000000
vt 1.000000 0.000000
vt 1.000000 0.000000
vt 1.000000 1.000000
vt 1.000000 0.000000
vt 0.000000 0.000000
vt 1.000000 0.000000
vt 1.000000 0.000000
vt 1.000000 1.000000
vt 1.000000 0.000000
vt 1.000000 0.000000
vt 1.000000 0.000000
vt 1.000000 1.000000
vt 1.000000 0.000000
vt 0.000000 0.000000
vt 1.000000 0.000000
vt 1.000000 1.000000
vt 1.000000 0.000000
vt 0.000000 0.000000
vt 1.000000 0.000000
vt 1.000000 0.000000
vt 1.000000 1.000000
vt 1.000000 0.000000
vt 0.000000 0.000000
vt 1.000000 0.000000
vt 1.000000 1.000000
vt 0.000000 1.000000
vt 0.000000 0.000000
vt 1.000000 0.000000
vt 1.000000 1.000000
vt 0.500000 1.000000
vt 0.975528 0.654508
vt 0.793893 0.095491
vt 0.206107 0.095492
vt 0.024472 0.654509
vt 1.000000 1.000000
vt 0.000000 0.000000
vt 1.000000 0.000000
vt 1.000000 1.000000
vt 1.000000 1.000000
vt 0.000000 1.000000
vt 0.000000 0.000000
vt 0.000000 1.000000
vt 0.000000 0.000000
vt 1.000000 0.000000
vt 1.000000 1.000000
vt 1.000000 1.000000
vt 0.000000 0.000000
vt 1.000000 0.000000
vt 0.000000 0.000000
vt 0.000000 1.000000
vt 0.000000 0.000000
vt 0.000000 1.000000
vt 0.500000 1.000000
vt 0.793893 0.095491
vt 0.206107 0.095492
vt 0.024472 0.654509
vt 0.500000 1.000000
vt 0.933013 0.750000
vt 0.933013 0.250000
vt 0.500000 0.000000
vt 0.066987 0.250000
vt 0.066987 0.750000
vt 0.000000 0.000000
vt 1.000000 0.000000
vt 1.000000 1.000000
vt 0.000000 1.000000
vt 0.500000 1.000000
vt 0.975528 0.654508
vt 0.793893 0.095491
vt 0.024472 0.654509
vt 1.000000 1.000000
vt 0.000000 1.000000
vt 0.500000 1.000000
vt 0.975528 0.654508
vt 0.793893 0.095491
vt 0.206107 0.095492
vt 0.024472 0.654509
vt 0.000000 0.000000
vt 1.000000 0.000000
vt 1.000000 1.000000
vt 0.000000 1.000000
vt 1.000000 0.000000
vt 1.000000 1.000000
vt 0.000000 1.000000
vt 0.000000 0.000000
vt 1.000000 1.000000
vt 0.000000 1.000000
vt 0.000000 0.000000
vt 1.000000 0.000000
vt 1.000000 1.000000
vt 0.000000 0.000000
vt 1.000000 0.000000
vt 1.000000 1.000000
vt 0.000000 1.000000
vt 0.000000 0.000000
vt 1.000000 0.000000
vt 0.000000 1.000000
vt 1.000000 0.000000
vt 1.000000 1.000000
vt 0.000000 1.000000
vt 1.000000 0.000000
vt 1.000000 1.000000
vt 0.000000 1.000000
vt 0.000000 0.000000
vt 1.000000 0.000000
vt 0.000000 1.000000
vt 0.000000 0.000000
vt 1.000000 0.000000
vt 0.000000 1.000000
vt 0.000000 0.000000
vt 1.000000 1.000000
vt 0.000000 1.000000
vt 1.000000 1.000000
vt 0.000000 1.000000
vt 0.000000 0.000000
vt 1.000000 0.000000
vt 1.000000 1.000000
vt 1.000000 0.000000
vt 0.000000 0.000000
vt 1.000000 1.000000
vt 0.000000 0.000000
vt 1.000000 0.000000
vt 1.000000 1.000000
vt 0.000000 1.000000
vt 0.500000 1.000000
vt 0.975528 0.654508
vt 0.793893 0.095491
vt 0.206107 0.095492
vt 0.024472 0.654509
vt 0.000000 0.000000
vt 1.000000 1.000000
vt 0.000000 1.000000
vt 0.000000 0.000000
vt 1.000000 0.000000
vt 1.000000 1.000000
vt 0.000000 1.000000
vt 0.000000 0.000000
vt 1.000000 0.000000
vt 1.000000 1.000000
vt 0.000000 1.000000
vt 1.000000 0.000000
vt 1.000000 1.000000
vt 0.000000 1.000000
vt 0.000000 0.000000
vt 1.000000 0.000000
vt 1.000000 1.000000
vt 0.000000 1.000000
vt 0.000000 0.000000
vt 1.000000 0.000000
vt 1.000000 1.000000
vt 1.000000 0.000000
vt 1.000000 1.000000
vt 0.000000 1.000000
vt 1.000000 0.000000
vt 1.000000 1.000000
vt 0.000000 0.000000
vt 0.000000 1.000000
vt 0.000000 0.000000
vt 1.000000 1.000000
vt 0.000000 1.000000
vn -0.0663 0.9965 -0.0515
vn 0.0284 0.9965 -0.0790
vn 0.0839 0.9965 0.0026
vn 0.0234 0.9965 0.0806
vn -0.0694 0.9965 0.0472
vn 0.0174 0.9998 0.0126
vn -0.0663 0.9966 -0.0482
vn -0.0694 0.9965 -0.0472
vn -0.0067 0.9998 0.0205
vn 0.0253 0.9966 -0.0780
vn 0.0234 0.9965 -0.0806
vn -0.0215 0.9998 0.0000
vn 0.0820 0.9966 0.0000
vn 0.0839 0.9965 -0.0026
vn -0.0067 0.9998 -0.0205
vn 0.0253 0.9966 0.0780
vn 0.0284 0.9965 0.0790
vn 0.0174 0.9998 -0.0126
vn -0.0663 0.9966 0.0482
vn -0.0663 0.9965 0.0515
vn 0.1024 -0.9435 0.3151
vn 0.7215 -0.5684 0.3955
vn -0.2680 -0.9435 0.1947
vn -0.2680 -0.9435 -0.1947
vn 0.1024 -0.9435 -0.3151
vn 0.8911 -0.2803 0.3568
vn 0.1437 -0.3923 0.9086
vn 0.3091 -0.9117 0.2707
vn -0.6848 -0.4215 -0.5944
vn -0.6248 0.3861 -0.6786
vn 0.4345 -0.5620 -0.7038
vn 0.8272 -0.5499 0.1158
vn -0.1001 0.2951 -0.9502
vn -0.3066 -0.1256 -0.9435
vn 0.8026 -0.1256 -0.5831
vn 0.1106 -0.5336 0.8385
vn 0.2360 -0.6456 0.7263
vn 0.4954 -0.5826 0.6443
vn 0.7002 -0.6617 -0.2680
vn 0.6071 -0.7947 0.0000
vn 0.3313 -0.9435 0.0000
vn -0.7758 -0.5885 0.2276
vn -0.6053 -0.6635 0.4398
vn -0.5726 -0.5361 0.6203
vn -0.5957 -0.6161 -0.5153
vn -0.6053 -0.6635 -0.4398
vn -0.7758 -0.5885 -0.2276
vn 0.4713 -0.6617 -0.5831
vn 0.1876 -0.7947 -0.5773
vn -0.0385 -0.6617 -0.7488
vn 0.9804 -0.0102 0.1967
vn 0.9794 -0.0776 0.1862
vn 0.9050 -0.3304 -0.2680
vn 0.2860 -0.0559 0.9566
vn 0.2763 -0.1708 0.9458
vn 0.3920 0.8748 0.2848
vn -0.8057 -0.0715 0.5880
vn -0.7912 -0.1837 0.5833
vn -0.6519 -0.3935 0.6482
vn -0.8872 0.0195 -0.4609
vn -0.8404 -0.2445 -0.4836
vn -0.3211 0.9471 0.0000
vn 0.3072 0.1090 -0.9454
vn 0.3035 -0.1876 -0.9342
vn 0.0247 -0.3304 -0.9435
vn 0.6364 0.1719 0.7520
vn 0.8053 0.0955 0.5851
vn 0.9176 0.1286 0.3761
vn -0.5159 0.2027 0.8323
vn -0.3056 0.1493 0.9404
vn -0.0719 0.2027 0.9766
vn -0.9589 0.1599 -0.2345
vn -0.9959 0.0908 0.0000
vn -0.9589 0.1599 0.2345
vn -0.0679 0.3105 -0.9481
vn -0.3035 0.1876 -0.9342
vn -0.5024 0.3105 -0.8069
vn 0.8808 0.3105 -0.3575
vn 0.7947 0.1876 -0.5773
vn 0.6122 0.3105 -0.7272
vn 0.8026 -0.1256 0.5831
vn 0.5346 -0.3304 0.7779
vn -0.0964 -0.9077 -0.4084
vn -0.5060 0.3127 0.8039
vn -0.3066 -0.1256 0.9435
vn -0.7372 -0.5499 -0.3926
vn -0.0791 0.9667 0.2433
vn -0.8897 -0.3304 0.3151
vn -0.9921 -0.1256 0.0000
vn -0.8897 -0.3304 -0.3151
vn -0.1001 0.2951 0.9502
vn 0.3091 -0.9117 -0.2707
vn 0.5346 -0.3304 -0.7779
vn -0.0572 -0.9343 0.3520
vn 0.8457 0.4442 0.2957
vn 0.0538 0.9259 -0.3740
vn -0.0056 -0.4186 -0.9082
vn 0.0205 -0.9656 0.2591
vn 0.2750 -0.2785 -0.9202
vn -0.0378 0.5211 0.8527
vn 0.0286 -0.5369 -0.8432
vn 0.0220 -0.9455 0.3250
vn -0.0080 0.4168 0.9090
vn 0.9188 0.1409 0.3688
vn 0.0852 0.2983 0.9507
vn 0.2598 -0.4351 -0.8621
vn 0.0927 0.4400 0.8932
vn 0.1842 0.9491 -0.2554
vn 0.8663 -0.2243 0.4464
vn -0.7027 0.0127 -0.7114
vn 0.7679 0.6170 -0.1720
vn -0.6369 -0.7684 0.0626
usemtl None
s off
f 7/1/1 33/2/1 39/3/1
f 8/4/2 34/5/2 40/6/2
f 9/7/3 35/8/3 41/9/3
f 10/10/4 36/11/4 42/12/4
f 11/13/5 37/14/5 38/15/5
f 39/3/6 38/15/6 12/16/6
f 39/3/7 33/2/7 38/15/7
f 33/2/8 11/13/8 38/15/8
f 40/6/9 39/3/9 12/16/9
f 40/6/10 34/5/10 39/3/10
f 34/5/11 7/1/11 39/3/11
f 41/9/12 40/6/12 12/16/12
f 41/9/13 35/8/13 40/6/13
f 35/8/14 8/4/14 40/6/14
f 42/12/15 41/9/15 12/16/15
f 42/12/16 36/11/16 41/9/16
f 36/11/17 9/7/17 41/9/17
f 38/15/18 42/12/18 12/16/18
f 38/15/19 37/14/19 42/12/19
f 37/14/20 10/10/20 42/12/20
usemtl None_wooden.png
f 1/17/21 13/18/21 15/19/21
f 2/20/22 13/18/22 17/21/22
f 1/17/23 15/22/23 19/23/23
f 1/17/24 19/24/24 21/25/24
f 1/17/25 21/26/25 16/27/25
f 2/28/26 17/29/26 24/30/26 86/31/26 80/32/26
f 3/33/27 14/34/27 26/35/27
f 20/36/28 4/37/28 50/38/28 52/39/28
f 5/40/29 20/41/29 30/42/29
f 57/43/30 56/44/30 22/45/30 32/46/30 60/47/30
f 84/48/31 83/49/31 2/50/31 80/51/31 87/52/31
f 48/53/32 47/54/32 3/55/32 26/56/32
f 29/57/33 20/41/33 52/58/33 54/59/33
f 5/40/34 30/60/34 31/61/34
f 6/62/35 58/63/35 32/64/35 23/65/35
f 15/66/36 14/34/36 3/55/36
f 15/66/37 13/18/37 14/67/37
f 13/68/38 2/69/38 14/67/38
f 17/70/39 16/71/39 6/72/39
f 17/70/40 13/18/40 16/27/40
f 13/68/41 1/73/41 16/27/41
f 19/74/42 18/75/42 4/76/42
f 19/74/43 15/22/43 18/77/43
f 15/66/44 3/78/44 18/77/44
f 21/79/45 20/41/45 5/80/45
f 21/79/46 19/24/46 20/81/46
f 19/74/47 4/37/47 20/81/47
f 16/82/48 22/83/48 6/72/48
f 16/82/49 21/26/49 22/84/49
f 21/79/50 5/85/50 22/84/50
f 24/86/51 23/87/51 11/88/51
f 24/86/52 17/89/52 23/90/52
f 17/70/53 6/91/53 23/90/53
f 26/92/54 25/93/54 7/94/54
f 26/92/55 14/34/55 25/95/55
f 46/96/56 45/97/56 81/98/56 85/99/56 24/100/56 25/101/56
f 28/102/57 27/103/57 8/104/57
f 28/102/58 18/75/58 27/105/58
f 18/106/59 3/78/59 27/105/59
f 30/107/60 29/108/60 9/109/60
f 30/107/61 20/41/61 29/110/61
f 54/111/62 53/112/62 28/113/62 29/114/62
f 32/115/63 31/116/63 10/117/63
f 32/115/64 22/83/64 31/61/64
f 22/118/65 5/85/65 31/61/65
f 25/119/66 33/120/66 7/94/66
f 25/119/67 24/121/67 33/122/67
f 24/86/68 11/123/68 33/122/68
f 27/124/69 34/125/69 8/104/69
f 27/124/70 26/126/70 34/127/70
f 26/92/71 7/128/71 34/127/71
f 29/57/72 35/129/72 9/109/72
f 29/57/73 28/130/73 35/131/73
f 28/102/74 8/132/74 35/131/74
f 31/133/75 36/134/75 10/117/75
f 31/133/76 30/60/76 36/135/76
f 30/107/77 9/136/77 36/135/77
f 23/137/78 37/138/78 11/88/78
f 23/137/79 32/139/79 37/140/79
f 32/115/80 10/141/80 37/140/80
f 43/142/81 82/143/81 45/144/81 46/145/81
f 44/146/82 43/147/82 46/148/82
f 14/149/83 2/150/83 83/151/83 43/152/83 44/153/83
f 25/119/84 14/34/84 44/154/84 46/145/84
f 47/155/85 48/156/85 49/157/85
f 27/124/86 3/78/86 47/158/86 49/159/86
f 49/160/87 48/156/87 26/35/87 27/161/87
f 50/162/88 51/163/88 53/164/88
f 50/162/89 53/112/89 54/165/89
f 52/166/90 50/167/90 54/165/90
f 53/168/91 51/163/91 18/77/91 28/169/91
f 51/170/92 50/167/92 4/76/92 18/171/92
f 55/172/93 56/44/93 57/173/93 59/174/93 63/175/93
f 56/176/94 55/177/94 64/178/94 61/179/94 6/180/94 22/181/94
f 67/182/95 64/183/95 55/184/95 63/185/95
f 60/186/95 62/187/95 65/188/95 59/174/95 57/189/95
f 32/115/95 58/63/95 62/190/95 60/191/95
f 58/192/95 6/193/95 61/194/95 66/195/95 62/196/95
f 65/197/95 67/198/95 63/199/95 59/200/95
f 65/197/96 62/201/96 69/202/96 71/203/96
f 64/204/97 67/198/97 73/205/97 70/206/97
f 76/207/98 74/208/98 68/209/98 70/206/98
f 70/210/99 73/211/99 79/212/99 76/213/99
f 72/214/100 69/215/100 62/190/100 66/216/100
f 67/182/101 65/217/101 71/218/101 73/219/101
f 70/210/102 68/220/102 61/221/102 64/222/102
f 66/223/103 61/224/103 68/209/103 72/225/103
f 75/226/104 78/227/104 79/212/104 77/228/104
f 78/229/104 74/208/104 76/230/104 79/231/104
f 72/214/105 68/220/105 74/232/105 78/233/105
f 73/234/106 71/235/106 77/236/106 79/231/106
f 78/229/107 75/237/107 69/202/107 72/225/107
f 71/238/108 69/215/108 75/239/108 77/228/108
f 89/240/31 87/241/31 80/242/31 86/243/31
f 45/244/31 82/245/31 84/246/31 88/247/31 81/248/31
f 82/249/31 43/147/31 83/250/31 84/251/31
f 85/252/31 89/253/31 86/254/31 24/255/31
f 88/256/109 84/257/109 91/258/109 94/259/109
f 89/240/110 85/260/110 92/261/110 95/262/110
f 90/263/31 94/264/31 95/265/31 92/266/31
f 94/267/31 91/268/31 93/269/31 95/262/31
f 94/267/109 90/270/109 81/271/109 88/272/109
f 85/252/111 81/273/111 90/274/111 92/266/111
f 87/275/110 89/253/110 95/265/110 93/276/110
f 93/277/112 91/268/112 84/278/112 87/279/112
